<svg xmlns="http://www.w3.org/2000/svg" width="800" height="800" viewBox="0 0 63.445 63.445">
  <path fill="#332C22" d="M21.572 28.926c5.067 0 9.19-5.533 9.19-12.334s-4.123-12.334-9.19-12.334-9.19 5.533-9.19 12.334 4.122 12.334 9.19 12.334zm0-21.668c3.355 0 6.19 4.275 6.19 9.334s-2.834 9.334-6.19 9.334-6.19-4.275-6.19-9.334 2.834-9.334 6.19-9.334zM48.83 40.922c-.189-.256-.37-.498-.466-.707-2.054-4.398-7.689-9.584-16.813-9.713L31.2 30.5c-8.985 0-14.576 4.912-16.813 9.51-.077.156-.247.361-.427.576-.212.254-.423.512-.604.793-1.89 2.941-2.853 6.25-2.711 9.318.15 3.26 1.512 5.877 3.835 7.369.937.604 1.95.907 3.011.907 2.191 0 4.196-1.233 6.519-2.664 1.476-.907 3.002-1.848 4.698-2.551.191-.063.968-.158 2.241-.158 1.515 0 2.6.134 2.833.216 1.653.729 3.106 1.688 4.513 2.612 2.154 1.418 4.188 2.759 6.395 2.759.947 0 1.867-.248 2.732-.742 4.778-2.715 5.688-10.162 2.03-16.603-.184-.322-.404-.623-.622-.92zm-2.891 14.916c-.422.238-.818.35-1.25.35-1.308 0-2.9-1.049-4.746-2.264-1.438-.947-3.066-2.02-4.949-2.852-.926-.41-2.934-.472-4.046-.472-1.629 0-2.76.128-3.362.375-1.943.808-3.646 1.854-5.149 2.779-1.934 1.188-3.604 2.219-4.946 2.219-.49 0-.931-.137-1.389-.432-1.483-.953-2.356-2.724-2.461-4.984-.113-2.45.682-5.135 2.238-7.557.113-.177.25-.334.383-.492.274-.328.586-.701.823-1.188 1.84-3.781 6.514-7.82 14.115-7.82l.308.002c7.736.109 12.451 4.369 14.137 7.982.225.479.517.875.773 1.223.146.199.301.4.426.619 2.84 5 2.435 10.613-.905 12.512zm-4.828-26.912c5.068 0 9.191-5.533 9.191-12.334S46.18 4.258 41.111 4.258s-9.189 5.533-9.189 12.334 4.122 12.334 9.189 12.334zm0-21.668c3.355 0 6.191 4.275 6.191 9.334s-2.834 9.334-6.191 9.334-6.189-4.275-6.189-9.334 2.834-9.334 6.189-9.334zm15.094 15.334c-4.061 0-7.241 4.213-7.241 9.59s3.181 9.588 7.241 9.588 7.24-4.213 7.24-9.588-3.179-9.59-7.24-9.59zm0 16.178c-2.299 0-4.241-3.018-4.241-6.588s1.942-6.59 4.241-6.59 4.24 3.018 4.24 6.59-1.942 6.588-4.24 6.588zm-41.723-6.588c0-5.377-3.181-9.59-7.241-9.59S0 26.805 0 32.182s3.181 9.588 7.241 9.588 7.241-4.213 7.241-9.588zM7.241 38.77C4.942 38.77 3 35.752 3 32.182s1.942-6.59 4.241-6.59 4.241 3.018 4.241 6.59S9.54 38.77 7.241 38.77z"/>
</svg>