<svg width="0" height="0" class="hidden">
<!-- Logo -->
  <symbol id="logo" fill="none" xmlns="http://www.w3.org/2000/svg" viewBox="0 0 158 52">
    <path d="M27.1168 33.1465C27.0531 33.0216 27.0046 32.9254 26.9548 32.8299C26.3416 31.653 24.8641 30.8887 23.5521 31.0695C22.4255 31.2246 21.4868 32.1613 21.157 33.4837C20.8015 34.9097 21.0582 36.2844 21.5711 37.621C22.4078 39.8006 23.7327 41.6648 25.3646 43.3145C26.4932 44.4553 27.3934 44.436 28.5042 43.2754C30.0465 41.6638 31.2981 39.8544 32.1664 37.7921C32.6783 36.5771 33.0551 35.3256 33.1123 33.9969C33.1537 33.0373 33.03 32.1131 32.4838 31.2894C31.7901 30.2435 30.649 29.9353 29.5267 30.4875C28.829 30.8308 28.2775 31.3435 27.842 31.9793C27.5924 32.3439 27.3743 32.7298 27.1168 33.1465ZM48.8379 39.2735C48.8123 41.0707 48.4073 42.7828 47.5798 44.3736C46.1754 47.0727 44.1438 49.1647 41.4239 50.5671C38.7428 51.9494 35.9952 52.1076 33.1877 51.0071C32.0481 50.5602 30.9118 50.0988 29.8007 49.5867C27.7818 48.6558 25.7714 48.6647 23.7068 49.4379C22.2567 49.981 20.785 50.4762 19.2981 50.9063C17.7581 51.3519 16.1729 51.5147 14.5661 51.3313C13.1771 51.1729 12.0037 50.5577 10.987 49.6266C9.69027 48.4393 8.65265 47.0529 7.99793 45.4179C7.1588 43.3226 7.3604 41.3012 8.58211 39.392C9.53853 37.8972 10.8299 36.7046 12.0809 35.4708C12.9903 34.574 13.8805 33.6531 14.7182 32.6897C15.6846 31.5778 16.2618 30.2361 16.7401 28.8576C17.1842 27.5787 17.5874 26.2857 18.0257 25.0047C18.3423 24.0792 18.9233 23.3094 19.4974 22.5291C20.8794 20.6509 22.8508 19.829 25.0276 19.3453C27.6079 18.7717 29.8566 19.5113 31.7754 21.2085C32.9561 22.2526 33.9781 23.4757 35.0771 24.613C36.9489 26.5501 38.9345 28.3592 41.1591 29.8873C42.2664 30.648 43.4286 31.3298 44.5267 32.1027C46.098 33.2087 47.4236 34.5507 48.2326 36.3321C48.6564 37.2653 48.8237 38.2543 48.8379 39.2735Z" fill="#332C22"></path>
    <path d="M23.5026 12.6257C23.5069 14.0643 23.252 15.6178 22.5702 17.0773C21.8407 18.6383 20.7852 19.8731 19.0495 20.3535C17.6212 20.7491 16.3026 20.4305 15.0734 19.6626C13.4563 18.6528 12.3627 17.1872 11.5493 15.5017C10.3683 13.0538 9.91309 10.4642 10.1552 7.75802C10.2982 6.1594 10.7502 4.66514 11.6434 3.30599C13.1837 0.962106 15.9522 0.299619 18.3596 1.72593C19.9214 2.65137 21.0155 4.00237 21.8473 5.58043C22.9811 7.73101 23.5211 10.0311 23.5026 12.6257Z" fill="#332C22"></path>
    <path d="M40.3136 8.33957C40.3162 11.2708 39.7751 13.7302 38.4418 15.9804C37.6963 17.2388 36.7428 18.3098 35.4245 18.9987C33.4975 20.0057 31.3761 19.6368 29.8633 18.062C28.6658 16.8155 28.016 15.2981 27.6679 13.6375C27.0667 10.7666 27.3769 7.96218 28.3936 5.23445C28.8857 3.91427 29.6045 2.70612 30.6377 1.7315C31.5896 0.83343 32.6744 0.129985 34.0259 0.0177295C35.7454 -0.125097 37.0955 0.603662 38.1749 1.89167C39.2873 3.21928 39.8429 4.79368 40.1186 6.47421C40.2374 7.19881 40.2732 7.93704 40.3136 8.33957Z" fill="#332C22"></path>
    <path d="M0 22.4697C0.0237918 21.1605 0.273644 19.9298 1.05202 18.8621C2.069 17.4666 3.49287 16.9519 5.17513 17.0573C6.87729 17.1639 8.32628 17.8992 9.62721 18.9365C11.9445 20.7842 13.477 23.1431 14.0867 26.0618C14.3566 27.353 14.3767 28.6563 13.9249 29.914C13.1484 32.0763 11.377 33.193 9.06822 33.0142C7.63185 32.903 6.36756 32.3287 5.2075 31.5111C2.70693 29.7484 1.09699 27.3525 0.281794 24.4238C0.106771 23.7951 0.0897841 23.1222 0 22.4697Z" fill="#332C22"></path>
    <path d="M52.6109 18.386C52.2235 22.4521 50.5692 25.5953 47.3613 27.8592C46.4703 28.4879 45.4683 28.8518 44.374 28.9628C42.5234 29.1504 40.8407 28.1086 40.145 26.3259C39.5336 24.7587 39.5691 23.155 39.9538 21.5594C40.694 18.488 42.3449 16.007 44.9394 14.1882C46.0879 13.3831 47.391 13.0544 48.7921 13.1713C50.4209 13.3072 51.7979 14.5293 52.274 16.3265C52.4665 17.0532 52.5213 17.8159 52.6109 18.386Z" fill="#332C22"></path>
    <path d="M128.88 31.8726H132.623L127.688 37.844L133.057 44.3279H129.203L124.112 38.0111V44.3279H120.714V31.8726H124.112V37.922L128.88 31.8726Z" fill="#332C22"></path>
    <path d="M118.364 38.078C118.364 39.1178 118.222 40.0387 117.94 40.8409C117.665 41.643 117.261 42.3226 116.726 42.8796C116.199 43.4292 115.56 43.8451 114.81 44.1273C114.067 44.4096 113.228 44.5507 112.292 44.5507C111.416 44.5507 110.61 44.4096 109.874 44.1273C109.147 43.8451 108.512 43.4292 107.969 42.8796C107.435 42.3226 107.019 41.643 106.722 40.8409C106.432 40.0387 106.287 39.1178 106.287 38.078C106.287 36.6965 106.532 35.5268 107.022 34.5687C107.513 33.6106 108.211 32.8827 109.117 32.3851C110.023 31.8875 111.104 31.6387 112.359 31.6387C113.525 31.6387 114.557 31.8875 115.456 32.3851C116.362 32.8827 117.071 33.6106 117.584 34.5687C118.104 35.5268 118.364 36.6965 118.364 38.078ZM109.752 38.078C109.752 38.895 109.841 39.582 110.019 40.139C110.197 40.696 110.476 41.1157 110.855 41.3979C111.234 41.6801 111.727 41.8212 112.336 41.8212C112.938 41.8212 113.425 41.6801 113.796 41.3979C114.175 41.1157 114.449 40.696 114.62 40.139C114.799 39.582 114.888 38.895 114.888 38.078C114.888 37.2536 114.799 36.5703 114.62 36.0281C114.449 35.4785 114.175 35.0663 113.796 34.7915C113.417 34.5167 112.923 34.3793 112.314 34.3793C111.416 34.3793 110.762 34.6875 110.353 35.304C109.952 35.9204 109.752 36.8451 109.752 38.078Z" fill="#332C22"></path>
    <path d="M103.936 31.8726V44.3279H100.527V34.4238H96.0147V44.3279H92.6168V31.8726H103.936Z" fill="#332C22"></path>
    <path d="M84.3821 31.6164C86.0532 31.6164 87.3344 31.9803 88.2257 32.7082C89.1169 33.436 89.5625 34.5427 89.5625 36.0281V44.3279H87.1896L86.5323 42.6345H86.4432C86.0867 43.0801 85.7227 43.444 85.3514 43.7263C84.98 44.0085 84.553 44.2165 84.0702 44.3501C83.5874 44.4838 83.0007 44.5507 82.31 44.5507C81.5747 44.5507 80.9137 44.4096 80.3269 44.1273C79.7476 43.8451 79.2909 43.4143 78.9566 42.835C78.6224 42.2483 78.4553 41.5056 78.4553 40.6069C78.4553 39.2849 78.9195 38.3119 79.8479 37.6881C80.7763 37.0567 82.1689 36.7077 84.0256 36.6408L86.1869 36.574V36.0281C86.1869 35.3745 86.0161 34.8955 85.6744 34.591C85.3328 34.2864 84.8575 34.1342 84.2484 34.1342C83.6469 34.1342 83.0564 34.2196 82.4771 34.3904C81.8978 34.5612 81.3185 34.7766 80.7392 35.0366L79.6139 32.7416C80.275 32.3925 81.014 32.1177 81.8309 31.9172C82.6553 31.7167 83.5057 31.6164 84.3821 31.6164ZM86.1869 38.557L84.8723 38.6016C83.7731 38.6313 83.0081 38.8281 82.5774 39.192C82.154 39.556 81.9423 40.035 81.9423 40.6292C81.9423 41.1491 82.0946 41.5204 82.3991 41.7432C82.7036 41.9586 83.101 42.0663 83.5912 42.0663C84.319 42.0663 84.9317 41.8509 85.4294 41.4202C85.9344 40.9894 86.1869 40.3767 86.1869 39.582V38.557Z" fill="#332C22"></path>
    <path d="M75.8928 44.3279H72.4503V30.9146H68.462C68.3729 31.6128 68.2763 32.374 68.1723 33.1984C68.0684 34.0228 67.9607 34.8547 67.8493 35.6939C67.7379 36.5332 67.619 37.3316 67.4928 38.0892C67.3739 38.8467 67.2551 39.5115 67.1363 40.0833C66.9432 41.034 66.6795 41.8436 66.3453 42.512C66.0185 43.173 65.5692 43.6781 64.9973 44.0271C64.4328 44.3762 63.6938 44.5507 62.7803 44.5507C62.4758 44.5507 62.1824 44.5285 61.9002 44.4839C61.6254 44.4393 61.3691 44.3799 61.1315 44.3056V41.4759C61.3246 41.5428 61.5177 41.5985 61.7108 41.643C61.9039 41.6802 62.1156 41.6987 62.3458 41.6987C62.6429 41.6987 62.888 41.6022 63.0811 41.4091C63.2816 41.2086 63.4599 40.8706 63.6158 40.3953C63.7718 39.9125 63.9278 39.2478 64.0837 38.4011C64.1506 38.0298 64.2397 37.5062 64.3511 36.8303C64.4625 36.147 64.5888 35.3486 64.7299 34.4351C64.871 33.5141 65.0158 32.5114 65.1644 31.4271C65.3203 30.3427 65.4689 29.2138 65.61 28.0403H75.8928V44.3279Z" fill="#332C22"></path>
    <path d="M152.421 10.757C154.092 10.757 155.373 11.1209 156.264 11.8487C157.156 12.5766 157.601 13.6832 157.601 15.1686V23.4684H155.228L154.571 21.775H154.482C154.125 22.2207 153.762 22.5846 153.39 22.8668C153.019 23.1491 152.592 23.357 152.109 23.4907C151.626 23.6244 151.04 23.6912 150.349 23.6912C149.614 23.6912 148.953 23.5501 148.366 23.2679C147.786 22.9857 147.33 22.5549 146.995 21.9756C146.661 21.3888 146.494 20.6461 146.494 19.7474C146.494 18.4254 146.958 17.4525 147.887 16.8286C148.815 16.1973 150.208 15.8482 152.064 15.7814L154.226 15.7145V15.1686C154.226 14.5151 154.055 14.036 153.713 13.7315C153.372 13.427 152.896 13.2747 152.287 13.2747C151.686 13.2747 151.095 13.3602 150.516 13.531C149.937 13.7018 149.357 13.9172 148.778 14.1771L147.653 11.8822C148.314 11.5331 149.053 11.2583 149.87 11.0578C150.694 10.8572 151.545 10.757 152.421 10.757ZM154.226 17.6976L152.911 17.7421C151.812 17.7718 151.047 17.9687 150.616 18.3326C150.193 18.6965 149.981 19.1756 149.981 19.7697C149.981 20.2896 150.133 20.661 150.438 20.8838C150.742 21.0992 151.14 21.2069 151.63 21.2069C152.358 21.2069 152.971 20.9915 153.468 20.5607C153.973 20.1299 154.226 19.5172 154.226 18.7225V17.6976Z" fill="#332C22"></path>
    <path d="M141.814 11.0132H145.557L140.622 16.9846L145.992 23.4684H142.137L137.046 17.1517V23.4684H133.648V11.0132H137.046V17.0625L141.814 11.0132Z" fill="#332C22"></path>
    <path d="M122.397 11.0132V15.8037H127.143V11.0132H130.541V23.4684H127.143V18.3326H122.397V23.4684H118.999V11.0132H122.397Z" fill="#332C22"></path>
    <path d="M106.297 11.0132V15.9373C106.297 16.1899 106.286 16.5092 106.264 16.8954C106.249 17.2742 106.227 17.6604 106.197 18.0541C106.167 18.4477 106.138 18.8005 106.108 19.1124C106.078 19.4244 106.056 19.636 106.041 19.7474L111.79 11.0132H115.878V23.4684H112.592V18.4997C112.592 18.0912 112.607 17.6419 112.636 17.1517C112.666 16.6541 112.699 16.1861 112.737 15.748C112.774 15.3098 112.8 14.9792 112.814 14.7564L107.088 23.4684H103.011V11.0132H106.297Z" fill="#332C22"></path>
    <path d="M101.14 13.5644H97.0624V23.4684H93.6645V13.5644H89.5759V11.0132H101.14V13.5644Z" fill="#332C22"></path>
    <path d="M82.6014 10.757C84.2725 10.757 85.5536 11.1209 86.4449 11.8487C87.3361 12.5766 87.7818 13.6832 87.7818 15.1686V23.4684H85.4088L84.7515 21.775H84.6624C84.3059 22.2207 83.942 22.5846 83.5706 22.8668C83.1993 23.1491 82.7722 23.357 82.2894 23.4907C81.8067 23.6244 81.2199 23.6912 80.5292 23.6912C79.7939 23.6912 79.1329 23.5501 78.5462 23.2679C77.9669 22.9857 77.5101 22.5549 77.1759 21.9756C76.8417 21.3888 76.6746 20.6461 76.6746 19.7474C76.6746 18.4254 77.1388 17.4525 78.0671 16.8286C78.9955 16.1973 80.3881 15.8482 82.2449 15.7814L84.4062 15.7145V15.1686C84.4062 14.5151 84.2353 14.036 83.8937 13.7315C83.552 13.427 83.0767 13.2747 82.4677 13.2747C81.8661 13.2747 81.2756 13.3602 80.6963 13.531C80.117 13.7018 79.5377 13.9172 78.9584 14.1771L77.8332 11.8822C78.4942 11.5331 79.2332 11.2583 80.0502 11.0578C80.8746 10.8572 81.725 10.757 82.6014 10.757ZM84.4062 17.6976L83.0916 17.7421C81.9924 17.7718 81.2274 17.9687 80.7966 18.3326C80.3732 18.6965 80.1616 19.1756 80.1616 19.7697C80.1616 20.2896 80.3138 20.661 80.6183 20.8838C80.9229 21.0992 81.3202 21.2069 81.8104 21.2069C82.5382 21.2069 83.151 20.9915 83.6486 20.5607C84.1536 20.1299 84.4062 19.5172 84.4062 18.7225V17.6976Z" fill="#332C22"></path>
    <path d="M76.1729 23.4685H72.2291L68.4413 17.3077L64.6535 23.4685H60.9548L66.358 15.0684L61.3002 7.18088H65.1103L68.6196 13.0408L72.062 7.18088H75.783L70.6695 15.2578L76.1729 23.4685Z" fill="#332C22"></path>
  </symbol>

  <symbol fill="none" xmlns="http://www.w3.org/2000/svg" viewBox="0 0 83 28" id="light-logo">
    <path d="M14.2812 17.4565C14.2476 17.3907 14.2221 17.34 14.1959 17.2897C13.8729 16.6699 13.0948 16.2674 12.4038 16.3626C11.8105 16.4443 11.3161 16.9376 11.1424 17.6341C10.9552 18.385 11.0904 19.109 11.3605 19.8129C11.8012 20.9608 12.4989 21.9426 13.3584 22.8114C13.9528 23.4122 14.4268 23.4021 15.0118 22.7908C15.8241 21.9421 16.4832 20.9892 16.9405 19.9031C17.2101 19.2632 17.4086 18.6041 17.4387 17.9043C17.4604 17.399 17.3953 16.9122 17.1077 16.4784C16.7424 15.9276 16.1414 15.7653 15.5503 16.0561C15.1829 16.2369 14.8924 16.5069 14.6631 16.8417C14.5316 17.0338 14.4168 17.237 14.2812 17.4565ZM25.7205 20.6832C25.707 21.6297 25.4937 22.5314 25.0579 23.3692C24.3183 24.7906 23.2484 25.8924 21.8159 26.6309C20.404 27.3589 18.9569 27.4422 17.4784 26.8627C16.8782 26.6273 16.2798 26.3843 15.6946 26.1146C14.6314 25.6244 13.5726 25.6291 12.4853 26.0363C11.7216 26.3223 10.9465 26.5831 10.1635 26.8096C9.35243 27.0443 8.51759 27.13 7.6714 27.0334C6.93989 26.95 6.3219 26.626 5.78646 26.1356C5.10356 25.5103 4.5571 24.7802 4.21229 23.9192C3.77036 22.8157 3.87654 21.7511 4.51995 20.7457C5.02364 19.9584 5.70373 19.3303 6.36256 18.6806C6.84148 18.2083 7.31034 17.7232 7.7515 17.2159C8.26045 16.6303 8.5644 15.9237 8.81633 15.1978C9.05021 14.5242 9.26256 13.8433 9.49337 13.1686C9.66012 12.6812 9.96608 12.2758 10.2684 11.8648C10.9963 10.8757 12.0345 10.4428 13.1809 10.1881C14.5398 9.88602 15.7241 10.2756 16.7346 11.1694C17.3564 11.7192 17.8946 12.3634 18.4734 12.9623C19.4592 13.9825 20.5049 14.9353 21.6765 15.74C22.2596 16.1406 22.8717 16.4997 23.45 16.9067C24.2775 17.4892 24.9757 18.196 25.4017 19.1342C25.6249 19.6256 25.713 20.1464 25.7205 20.6832Z" fill="#F6F4F1"></path>
    <path d="M12.3774 6.64928C12.3797 7.4069 12.2454 8.22502 11.8864 8.99366C11.5022 9.81579 10.9463 10.4661 10.0322 10.7191C9.28001 10.9274 8.58558 10.7596 7.93823 10.3552C7.08656 9.82341 6.51062 9.05156 6.08229 8.16391C5.46029 6.87474 5.22057 5.51094 5.34806 4.08572C5.42336 3.24381 5.66144 2.45687 6.13182 1.74108C6.94303 0.506681 8.40105 0.157785 9.66887 0.908947C10.4914 1.39633 11.0676 2.10783 11.5057 2.9389C12.1028 4.07149 12.3872 5.28282 12.3774 6.64928Z" fill="#F6F4F1"></path>
    <path d="M21.2312 4.392C21.2325 5.93572 20.9476 7.23096 20.2454 8.41602C19.8528 9.07875 19.3507 9.64279 18.6564 10.0056C17.6415 10.5359 16.5243 10.3416 15.7276 9.51228C15.0969 8.85583 14.7547 8.0567 14.5714 7.18215C14.2547 5.67018 14.4182 4.19325 14.9536 2.7567C15.2127 2.06144 15.5913 1.42517 16.1354 0.911887C16.6368 0.438922 17.208 0.068456 17.9198 0.00933715C18.8254 -0.065882 19.5364 0.317916 20.1049 0.996239C20.6907 1.69542 20.9833 2.52457 21.1285 3.40962C21.1911 3.79122 21.2099 4.18001 21.2312 4.392Z" fill="#F6F4F1"></path>
    <path d="M0 11.8336C0.0125298 11.1441 0.144113 10.4959 0.554041 9.93363C1.08963 9.19869 1.83951 8.92763 2.72546 8.98313C3.6219 9.03929 4.385 9.42655 5.07013 9.97281C6.2905 10.9459 7.0976 12.1882 7.41869 13.7253C7.56084 14.4053 7.5714 15.0917 7.33351 15.7541C6.92456 16.8928 5.99163 17.481 4.77574 17.3868C4.01928 17.3282 3.35345 17.0258 2.74251 16.5952C1.42559 15.6669 0.577723 14.4051 0.148406 12.8627C0.0562304 12.5316 0.0472844 12.1772 0 11.8336Z" fill="#F6F4F1"></path>
    <path d="M27.7074 9.68291C27.5034 11.8243 26.6322 13.4797 24.9427 14.672C24.4735 15.0031 23.9458 15.1947 23.3695 15.2531C22.3949 15.352 21.5087 14.8033 21.1423 13.8644C20.8203 13.0391 20.839 12.1945 21.0416 11.3542C21.4314 9.73667 22.3009 8.43006 23.6673 7.4722C24.2721 7.04817 24.9584 6.87506 25.6963 6.93664C26.5541 7.00818 27.2793 7.65179 27.53 8.59828C27.6314 8.981 27.6602 9.3827 27.7074 9.68291Z" fill="#F6F4F1"></path>
    <path d="M67.8739 16.7856H69.8452L67.2461 19.9304L70.0741 23.3451H68.044L65.3627 20.0185V23.3451H63.5732V16.7856H65.3627V19.9715L67.8739 16.7856Z" fill="#F6F4F1"></path>
    <path d="M62.3356 20.0536C62.3356 20.6012 62.2613 21.0863 62.1126 21.5087C61.9679 21.9311 61.7547 22.289 61.4731 22.5824C61.1954 22.8718 60.859 23.0909 60.464 23.2395C60.0728 23.3881 59.6308 23.4625 59.138 23.4625C58.6764 23.4625 58.252 23.3881 57.8648 23.2395C57.4815 23.0909 57.1471 22.8718 56.8615 22.5824C56.5799 22.289 56.3609 21.9311 56.2044 21.5087C56.0519 21.0863 55.9756 20.6012 55.9756 20.0536C55.9756 19.3261 56.1047 18.7101 56.3628 18.2055C56.621 17.7009 56.9886 17.3176 57.4658 17.0555C57.943 16.7934 58.5122 16.6624 59.1732 16.6624C59.7873 16.6624 60.331 16.7934 60.8043 17.0555C61.2815 17.3176 61.655 17.7009 61.9249 18.2055C62.1987 18.7101 62.3356 19.3261 62.3356 20.0536ZM57.8003 20.0536C57.8003 20.4839 57.8472 20.8457 57.9411 21.1391C58.035 21.4324 58.1816 21.6534 58.3811 21.8021C58.5806 21.9507 58.8407 22.025 59.1615 22.025C59.4783 22.025 59.7345 21.9507 59.9301 21.8021C60.1295 21.6534 60.2743 21.4324 60.3642 21.1391C60.4581 20.8457 60.505 20.4839 60.505 20.0536C60.505 19.6195 60.4581 19.2596 60.3642 18.9741C60.2743 18.6846 60.1295 18.4675 59.9301 18.3228C59.7306 18.1781 59.4705 18.1057 59.1497 18.1057C58.6764 18.1057 58.3322 18.2681 58.1171 18.5927C57.9059 18.9174 57.8003 19.4043 57.8003 20.0536Z" fill="#F6F4F1"></path>
    <path d="M54.7369 16.7856V23.3451H52.9416V18.1292H50.5654V23.3451H48.7759V16.7856H54.7369Z" fill="#F6F4F1"></path>
    <path d="M44.4392 16.6507C45.3193 16.6507 45.994 16.8424 46.4634 17.2257C46.9327 17.609 47.1674 18.1918 47.1674 18.9741V23.3451H45.9177L45.5716 22.4533H45.5246C45.3369 22.688 45.1452 22.8797 44.9496 23.0283C44.7541 23.1769 44.5292 23.2865 44.2749 23.3569C44.0207 23.4273 43.7117 23.4625 43.3479 23.4625C42.9607 23.4625 42.6126 23.3882 42.3036 23.2395C41.9985 23.0909 41.7579 22.864 41.5819 22.5589C41.4059 22.2499 41.3179 21.8588 41.3179 21.3855C41.3179 20.6893 41.5623 20.1769 42.0513 19.8483C42.5402 19.5158 43.2736 19.332 44.2515 19.2968L45.3897 19.2616V18.9741C45.3897 18.6299 45.2997 18.3776 45.1198 18.2172C44.9399 18.0569 44.6895 17.9767 44.3688 17.9767C44.052 17.9767 43.741 18.0217 43.4359 18.1116C43.1308 18.2016 42.8257 18.315 42.5206 18.4519L41.9281 17.2433C42.2762 17.0594 42.6654 16.9147 43.0956 16.8091C43.5298 16.7035 43.9777 16.6507 44.4392 16.6507ZM45.3897 20.3059L44.6974 20.3294C44.1185 20.3451 43.7156 20.4487 43.4887 20.6404C43.2658 20.832 43.1543 21.0843 43.1543 21.3972C43.1543 21.671 43.2345 21.8666 43.3948 21.9839C43.5552 22.0974 43.7645 22.1541 44.0226 22.1541C44.406 22.1541 44.7286 22.0407 44.9907 21.8138C45.2567 21.5869 45.3897 21.2642 45.3897 20.8457V20.3059Z" fill="#F6F4F1"></path>
    <path d="M39.9683 23.3451H38.1554V16.2811H36.0549C36.008 16.6487 35.9571 17.0497 35.9024 17.4838C35.8476 17.918 35.7909 18.3561 35.7322 18.7981C35.6736 19.2401 35.611 19.6605 35.5445 20.0595C35.4819 20.4585 35.4193 20.8086 35.3567 21.1097C35.255 21.6104 35.1162 22.0368 34.9402 22.3888C34.7681 22.7369 34.5314 23.0029 34.2302 23.1867C33.933 23.3706 33.5438 23.4625 33.0627 23.4625C32.9023 23.4625 32.7478 23.4507 32.5992 23.4273C32.4544 23.4038 32.3195 23.3725 32.1943 23.3334V21.8431C32.296 21.8783 32.3977 21.9077 32.4994 21.9311C32.6011 21.9507 32.7126 21.9605 32.8339 21.9605C32.9903 21.9605 33.1194 21.9096 33.2211 21.8079C33.3267 21.7023 33.4206 21.5244 33.5027 21.274C33.5849 21.0198 33.667 20.6697 33.7491 20.2238C33.7843 20.0282 33.8313 19.7525 33.8899 19.3965C33.9486 19.0367 34.0151 18.6162 34.0894 18.1351C34.1637 17.6501 34.24 17.122 34.3182 16.551C34.4004 15.9799 34.4786 15.3853 34.5529 14.7673H39.9683V23.3451Z" fill="#F6F4F1"></path>
    <path d="M80.2717 5.66516C81.1518 5.66516 81.8265 5.85682 82.2959 6.24014C82.7653 6.62346 83 7.20627 83 7.98856V12.3596H81.7502L81.4041 11.4678H81.3571C81.1694 11.7025 80.9777 11.8941 80.7822 12.0428C80.5866 12.1914 80.3617 12.3009 80.1074 12.3713C79.8532 12.4417 79.5442 12.4769 79.1804 12.4769C78.7932 12.4769 78.4451 12.4026 78.1361 12.254C77.831 12.1054 77.5904 11.8785 77.4144 11.5734C77.2384 11.2644 77.1504 10.8732 77.1504 10.4C77.1504 9.70373 77.3949 9.19133 77.8838 8.86277C78.3727 8.53029 79.1061 8.34646 80.084 8.31125L81.2222 8.27605V7.98856C81.2222 7.64435 81.1322 7.39206 80.9523 7.23169C80.7724 7.07133 80.5221 6.99114 80.2013 6.99114C79.8845 6.99114 79.5735 7.03612 79.2684 7.12609C78.9633 7.21605 78.6583 7.32948 78.3532 7.46638L77.7606 6.25774C78.1087 6.07391 78.4979 5.92918 78.9281 5.82357C79.3623 5.71797 79.8102 5.66516 80.2717 5.66516ZM81.2222 9.3204L80.5299 9.34387C79.951 9.35952 79.5481 9.46317 79.3212 9.65483C79.0983 9.84649 78.9868 10.0988 78.9868 10.4117C78.9868 10.6855 79.067 10.8811 79.2274 10.9984C79.3877 11.1118 79.597 11.1686 79.8552 11.1686C80.2385 11.1686 80.5612 11.0551 80.8232 10.8283C81.0892 10.6014 81.2222 10.2787 81.2222 9.86018V9.3204Z" fill="#F6F4F1"></path>
    <path d="M74.6854 5.80011H76.6568L74.0576 8.94491L76.8856 12.3596H74.8555L72.1743 9.03292V12.3596H70.3848V5.80011H72.1743V8.98598L74.6854 5.80011Z" fill="#F6F4F1"></path>
    <path d="M64.4594 5.80011V8.32299H66.9588V5.80011H68.7483V12.3596H66.9588V9.65484H64.4594V12.3596H62.6699V5.80011H64.4594Z" fill="#F6F4F1"></path>
    <path d="M55.9808 5.80011V8.3934C55.9808 8.52639 55.9749 8.69458 55.9632 8.89797C55.9554 9.09746 55.9437 9.30085 55.928 9.50816C55.9124 9.71546 55.8967 9.90126 55.8811 10.0655C55.8654 10.2298 55.8537 10.3413 55.8459 10.4L58.8733 5.80011H61.0266V12.3596H59.2958V9.74284C59.2958 9.52771 59.3036 9.29107 59.3192 9.03292C59.3349 8.77085 59.3525 8.52443 59.372 8.29365C59.3916 8.06288 59.4053 7.88882 59.4131 7.77148L56.3974 12.3596H54.25V5.80011H55.9808Z" fill="#F6F4F1"></path>
    <path d="M53.2644 7.14369H51.1171V12.3596H49.3276V7.14369H47.1743V5.80011H53.2644V7.14369Z" fill="#F6F4F1"></path>
    <path d="M43.5012 5.66516C44.3813 5.66516 45.056 5.85682 45.5254 6.24014C45.9948 6.62346 46.2294 7.20627 46.2294 7.98856V12.3596H44.9797L44.6336 11.4678H44.5866C44.3989 11.7025 44.2072 11.8941 44.0117 12.0428C43.8161 12.1914 43.5912 12.3009 43.3369 12.3713C43.0827 12.4417 42.7737 12.4769 42.4099 12.4769C42.0227 12.4769 41.6746 12.4026 41.3656 12.254C41.0605 12.1054 40.8199 11.8785 40.6439 11.5734C40.4679 11.2644 40.3799 10.8732 40.3799 10.4C40.3799 9.70373 40.6243 9.19133 41.1133 8.86277C41.6022 8.53029 42.3356 8.34646 43.3135 8.31125L44.4517 8.27605V7.98856C44.4517 7.64435 44.3617 7.39206 44.1818 7.23169C44.0019 7.07133 43.7515 6.99114 43.4308 6.99114C43.114 6.99114 42.803 7.03612 42.4979 7.12609C42.1928 7.21605 41.8877 7.32948 41.5827 7.46638L40.9901 6.25774C41.3382 6.07391 41.7274 5.92918 42.1576 5.82357C42.5918 5.71797 43.0397 5.66516 43.5012 5.66516ZM44.4517 9.3204L43.7594 9.34387C43.1805 9.35952 42.7776 9.46317 42.5507 9.65483C42.3278 9.84649 42.2163 10.0988 42.2163 10.4117C42.2163 10.6855 42.2965 10.8811 42.4569 10.9984C42.6172 11.1118 42.8265 11.1686 43.0846 11.1686C43.468 11.1686 43.7907 11.0551 44.0527 10.8283C44.3187 10.6014 44.4517 10.2787 44.4517 9.86018V9.3204Z" fill="#F6F4F1"></path>
    <path d="M40.1161 12.3596H38.0391L36.0443 9.11505L34.0495 12.3596H32.1016L34.9471 7.93575L32.2834 3.7818H34.29L36.1382 6.86793L37.9511 3.7818H39.9108L37.2177 8.03549L40.1161 12.3596Z" fill="#F6F4F1"></path>
  </symbol>

<!-- Header -->
  <symbol id="burger" fill="none" xmlns="http://www.w3.org/2000/svg" viewBox="0 0 24 24">
  <path 
    d="M3.70234 18.2212C3.46184 18.2212 3.25975 18.139 3.09609 17.9745C2.93242 17.81 2.85059 17.6049 2.85059 17.3592C2.85059 17.1176 2.93242 16.9159 3.09609 16.7542C3.25975 16.5927 3.46184 16.512 3.70234 16.512H20.2978C20.5383 16.512 20.7414 16.5942 20.9071 16.7587C21.0728 16.9232 21.1556 17.1263 21.1556 17.368C21.1556 17.6137 21.0728 17.8172 20.9071 17.9787C20.7414 18.1404 20.5383 18.2212 20.2978 18.2212H3.70234ZM3.70234 12.8517C3.46184 12.8517 3.25975 12.7694 3.09609 12.6047C2.93242 12.4402 2.85059 12.2372 2.85059 11.9955C2.85059 11.754 2.93242 11.5524 3.09609 11.3907C3.25975 11.2291 3.46184 11.1482 3.70234 11.1482H20.2978C20.5383 11.1482 20.7414 11.2306 20.9071 11.3952C21.0728 11.5597 21.1556 11.7628 21.1556 12.0045C21.1556 12.246 21.0728 12.4476 20.9071 12.6092C20.7414 12.7709 20.5383 12.8517 20.2978 12.8517H3.70234ZM3.70234 7.488C3.46184 7.488 3.25975 7.40575 3.09609 7.24125C2.93242 7.07675 2.85059 6.87166 2.85059 6.626C2.85059 6.38433 2.93242 6.18275 3.09609 6.02125C3.25975 5.85958 3.46184 5.77875 3.70234 5.77875H20.2978C20.5383 5.77875 20.7414 5.861 20.9071 6.0255C21.0728 6.19 21.1556 6.39308 21.1556 6.63475C21.1556 6.88041 21.0728 7.08408 20.9071 7.24575C20.7414 7.40725 20.5383 7.488 20.2978 7.488H3.70234Z" 
    fill="currentColor" 
    stroke="currentColor"
  />
</symbol>

<!-- Mobile menu / Modals -->
<symbol id="close" fill="none" xmlns="http://www.w3.org/2000/svg" viewBox="0 0 24 24">
  <path
    d="M17.5996 5.92499C17.7639 5.92499 17.8659 5.97349 17.9463 6.05389C18.0265 6.1342 18.0751 6.23569 18.0752 6.3996C18.0752 6.5638 18.0266 6.66589 17.9463 6.74628L12.6924 12.0002L13.0459 12.3537L17.9463 17.2531C18.0267 17.3335 18.0752 17.4356 18.0752 17.5998C18.0752 17.7641 18.0267 17.8661 17.9463 17.9465C17.8659 18.0269 17.7639 18.0754 17.5996 18.0754C17.4355 18.0753 17.3333 18.0268 17.2529 17.9465L12.3535 13.0461L12 12.6926L6.74609 17.9465C6.66571 18.0268 6.56362 18.0754 6.39941 18.0754C6.23551 18.0753 6.13402 18.0267 6.05371 17.9465C5.97331 17.8661 5.9248 17.7641 5.9248 17.5998C5.92484 17.4356 5.97334 17.3335 6.05371 17.2531L11.3066 12.0002L10.9531 11.6467L6.05371 6.74628C5.97331 6.66587 5.9248 6.56387 5.9248 6.3996C5.92488 6.23556 5.97337 6.13423 6.05371 6.05389C6.13405 5.97356 6.23537 5.92506 6.39941 5.92499C6.56368 5.92499 6.66569 5.97349 6.74609 6.05389L11.6465 10.9533L12 11.3068L17.2529 6.05389C17.3333 5.97352 17.4355 5.92503 17.5996 5.92499Z"
    fill="currentColor"
  />
</symbol>

  <!-- About / Stories -->

   <symbol id="arrow_forward" fill="none" xmlns="http://www.w3.org/2000/svg" viewBox="0 0 24 24" >
    <path d="M11.9951 4.68945C12.0661 4.69012 12.1279 4.70677 12.1895 4.75L12.251 4.80273L19.1992 11.751C19.2524 11.8051 19.2781 11.8473 19.29 11.876V11.877C19.3052 11.9133 19.3135 11.9534 19.3135 12.001C19.3134 12.0486 19.3048 12.0877 19.29 12.123V12.124C19.2782 12.1525 19.2527 12.1948 19.1992 12.249L12.2451 19.1973C12.1538 19.2875 12.0752 19.3135 11.9922 19.3135C11.9115 19.3134 11.8393 19.2889 11.7559 19.2031L11.751 19.1982L11.6992 19.1377C11.6571 19.0781 11.6426 19.02 11.6426 18.9551C11.6426 18.8904 11.6573 18.8328 11.6992 18.7734L11.751 18.7129L18.1123 12.3516H4.70215C4.58005 12.3515 4.50781 12.3164 4.44727 12.2559H4.44629C4.38542 12.195 4.35059 12.122 4.35059 12C4.35059 11.878 4.38542 11.805 4.44629 11.7441H4.44727C4.50782 11.6836 4.58005 11.6485 4.70215 11.6484H18.1123L11.7568 5.29297C11.6955 5.23162 11.6637 5.17322 11.6514 5.1084L11.6455 5.04102C11.6446 4.95107 11.6708 4.87748 11.751 4.79688L11.752 4.7959C11.8321 4.71531 11.9055 4.68868 11.9951 4.68945Z" fill="#02060A" stroke="#02060A"></path>
  </symbol>
  
  <symbol id="arrow_back" fill="none" xmlns="http://www.w3.org/2000/svg" viewBox="0 0 24 24" >
    <path d="M12.0078 4.68652C12.0934 4.68658 12.1668 4.71285 12.249 4.79492C12.3313 4.88086 12.3574 4.95797 12.3574 5.04395C12.3573 5.13078 12.3308 5.20478 12.249 5.28711L5.8877 11.6484H19.2979C19.4194 11.6485 19.4945 11.6838 19.5586 11.7471C19.6207 11.8084 19.6553 11.8801 19.6553 12C19.6553 12.1199 19.6207 12.1916 19.5586 12.2529C19.4945 12.3162 19.4194 12.3515 19.2979 12.3516H5.8877L12.2432 18.707V18.7061C12.3254 18.7885 12.3537 18.8653 12.3545 18.957V18.958C12.355 19.0245 12.3404 19.0829 12.2988 19.1426L12.2471 19.2041C12.1671 19.2851 12.0939 19.3113 12.0049 19.3105C11.9104 19.3096 11.8321 19.2796 11.749 19.1973L4.80078 12.249C4.74762 12.1949 4.72192 12.1527 4.70996 12.124V12.123C4.69485 12.0867 4.68652 12.0466 4.68652 11.999C4.68655 11.9514 4.69516 11.9123 4.70996 11.877V11.876C4.72183 11.8475 4.74729 11.8051 4.80078 11.751L11.751 4.80078C11.8414 4.71356 11.9211 4.68652 12.0078 4.68652Z" fill="#02060A" stroke="#02060A"></path>
  </symbol>

 <!-- FAQ -->
 <symbol id="add" fill="none" xmlns="http://www.w3.org/2000/svg" viewBox="0 0 24 24">
  <path 
    d="M11.1483 12.8518H5.70234C5.46184 12.8518 5.25975 12.7694 5.09609 12.6048C4.93242 12.4403 4.85059 12.2372 4.85059 11.9955C4.85059 11.754 4.93242 11.5524 5.09609 11.3908C5.25975 11.2291 5.46184 11.1483 5.70234 11.1483H11.1483V5.70226C11.1483 5.46226 11.2307 5.25935 11.3953 5.09351C11.5598 4.92751 11.7629 4.84451 12.0046 4.84451C12.2461 4.84451 12.4477 4.92751 12.6093 5.09351C12.771 5.25935 12.8518 5.46226 12.8518 5.70226V11.1483H18.2978C18.5378 11.1483 18.7408 11.2306 18.9066 11.3953C19.0726 11.5598 19.1556 11.7628 19.1556 12.0045C19.1556 12.246 19.0726 12.4476 18.9066 12.6093C18.7408 12.7709 18.5378 12.8518 18.2978 12.8518H12.8518V18.2978C12.8518 18.5383 12.7695 18.7403 12.6048 18.904C12.4403 19.0677 12.2373 19.1495 11.9956 19.1495C11.7541 19.1495 11.5525 19.0677 11.3908 18.904C11.2292 18.7403 11.1483 18.5383 11.1483 18.2978V12.8518Z" 
    fill="currentColor"
  />
</symbol>
  
  <!-- Stories -->
  <symbol id="star-half" fill="none" xmlns="http://www.w3.org/2000/svg" viewBox="0 0 24 24" >
    <path d="M11.5312 3.80664C11.7032 3.39816 12.2968 3.39816 12.4688 3.80664L14.4971 8.625C14.7155 9.14358 15.2076 9.49471 15.7676 9.53906L21.0332 9.95605C21.4909 9.99232 21.6545 10.5412 21.3242 10.8213L17.3115 14.2168C16.8819 14.5804 16.6919 15.1542 16.8242 15.7021L18.0508 20.7783C18.1502 21.1902 17.6892 21.5518 17.291 21.3115H17.29L12.7832 18.5918C12.3023 18.3016 11.6977 18.3016 11.2168 18.5918L6.70898 21.3115C6.31078 21.5518 5.84983 21.1902 5.94922 20.7783L7.17578 15.7021C7.30809 15.1543 7.11814 14.5805 6.68848 14.2168L2.67578 10.8213C2.34544 10.5412 2.5091 9.99231 2.9668 9.95605L8.23242 9.53906C8.79243 9.49471 9.28456 9.14369 9.50293 8.625L11.5312 3.80664Z" fill="url(#paint0_linear_8242_16266)" stroke="#02060A"></path>
    <defs>
      <linearGradient id="paint0_linear_8242_16266" x1="2" y1="12.3716" x2="22" y2="12.3716" gradientUnits="userSpaceOnUse">
        <stop offset="0.5" stop-color="#02060A"></stop>
        <stop offset="0.5" stop-color="#02060A" stop-opacity="0"></stop>
      </linearGradient>
    </defs>
  </symbol>
  
  <symbol id="star-outline" fill="none" xmlns="http://www.w3.org/2000/svg" viewBox="0 0 24 24">
    <path d="M12.0078 4.00098L14.0361 8.81934C14.328 9.51225 14.9837 9.97813 15.7275 10.0371L20.9854 10.4531L16.9893 13.835H16.9883C16.4157 14.3197 16.1618 15.086 16.3389 15.8193L17.5615 20.8848C17.5599 20.8857 17.5589 20.8872 17.5576 20.8877C17.5559 20.8869 17.5532 20.8858 17.5498 20.8838L13.041 18.1631C12.4014 17.7772 11.5986 17.7772 10.959 18.1631L6.4502 20.8838C6.44677 20.8858 6.4441 20.8869 6.44238 20.8877C6.44085 20.8871 6.43936 20.8859 6.4375 20.8848L7.66113 15.8193C7.8271 15.1321 7.61431 14.416 7.11523 13.9297L7.01172 13.835L3.01367 10.4531L8.27246 10.0371C9.01627 9.97814 9.67205 9.51246 9.96387 8.81934L11.9912 4.00098C11.9936 4.00054 11.9966 4 12 4C12.003 4 12.0056 4.00062 12.0078 4.00098Z" stroke="#02060A" stroke-width="2"></path>
  </symbol>

  <symbol id="star-filled" fill="none" xmlns="http://www.w3.org/2000/svg" viewBox="0 0 24 24" >
    <path d="M11.0709 3.61234C11.4146 2.79588 12.5854 2.79589 12.9291 3.61235L14.9579 8.43123C15.1029 8.77543 15.4306 9.01061 15.8067 9.0404L21.0727 9.45748C21.9649 9.52814 22.3267 10.6281 21.6469 11.2034L17.6348 14.5987C17.3482 14.8412 17.223 15.2218 17.3106 15.5843L18.5363 20.661C18.744 21.5211 17.7969 22.201 17.033 21.7401L12.5245 19.0196C12.2025 18.8252 11.7975 18.8252 11.4755 19.0196L6.96699 21.7401C6.20311 22.201 5.25596 21.5211 5.46363 20.661L6.68942 15.5843C6.77698 15.2218 6.65182 14.8412 6.36526 14.5987L2.35306 11.2034C1.67328 10.6281 2.03507 9.52814 2.92729 9.45748L8.19336 9.0404C8.5695 9.01061 8.89716 8.77543 9.04207 8.43123L11.0709 3.61234Z" fill="#02060A"></path>
  </symbol>

<!-- Footer -->

<symbol id="instagram" fill="none" xmlns="http://www.w3.org/2000/svg" viewBox="0 0 24 24">
    <path d="M11.9988 4.62091C14.4032 4.62091 14.6878 4.63159 15.6332 4.67378C16.5123 4.71258 16.9864 4.85994 17.303 4.98311C17.7215 5.14509 18.0235 5.34194 18.3362 5.65465C18.6528 5.97129 18.8458 6.26994 19.0111 6.68838C19.1343 7.00503 19.2816 7.48253 19.3204 8.35822C19.3626 9.3076 19.3733 9.59218 19.3733 11.9932C19.3733 14.3942 19.3626 14.6821 19.3204 15.6281C19.2816 16.5072 19.1343 16.9813 19.0111 17.298C18.8491 17.7164 18.6528 18.0184 18.3396 18.3311C18.0229 18.6478 17.7243 18.8407 17.3064 19.0061C16.9898 19.1292 16.5117 19.2766 15.6366 19.3154C14.6872 19.3576 14.4026 19.3683 12.0016 19.3683C9.60062 19.3683 9.31266 19.3576 8.36666 19.3154C7.48759 19.2766 7.01346 19.1292 6.69682 19.0061C6.27838 18.8441 5.97635 18.6478 5.66308 18.3345C5.34644 18.0179 5.15353 17.7192 4.98817 17.3013C4.865 16.9847 4.71765 16.5066 4.67884 15.6315C4.63666 14.6821 4.62597 14.3975 4.62597 11.9965C4.62597 9.59556 4.63666 9.3076 4.67884 8.3616C4.71765 7.48253 4.865 7.0084 4.98817 6.69176C5.15015 6.27331 5.347 5.97129 5.65971 5.65802C5.97635 5.34137 6.275 5.14846 6.69344 4.98311C7.01009 4.85994 7.48759 4.71258 8.36328 4.67378C9.30872 4.63159 9.59387 4.62091 11.9982 4.62091H11.9988ZM11.9988 3.00056C9.55563 3.00056 9.25023 3.01125 8.29017 3.05343C7.33405 3.09561 6.67657 3.25028 6.1074 3.47187C5.51348 3.70359 5.01067 4.00955 4.5118 4.51236C4.00899 5.01179 3.70303 5.51404 3.47131 6.10459C3.24972 6.6777 3.09505 7.33123 3.05287 8.28736C3.01069 9.25079 3 9.55619 3 11.9994C3 14.4425 3.01069 14.7479 3.05287 15.708C3.09505 16.6641 3.24972 17.3216 3.47131 17.8908C3.70359 18.4847 4.00899 18.9875 4.5118 19.4864C5.01067 19.9852 5.51348 20.2951 6.10402 20.5235C6.67713 20.7451 7.33067 20.8997 8.28679 20.9419C9.24629 20.9841 9.55225 20.9948 11.9954 20.9948C14.4386 20.9948 14.7446 20.9841 15.7041 20.9419C16.6602 20.8997 17.3177 20.7451 17.8868 20.5235C18.4774 20.2951 18.9802 19.9858 19.4791 19.4864C19.9779 18.9869 20.2878 18.4847 20.5162 17.8941C20.7378 17.321 20.8924 16.6675 20.9346 15.7114C20.9768 14.7519 20.9875 14.4459 20.9875 12.0027C20.9875 9.55956 20.9768 9.25417 20.9346 8.29411C20.8924 7.33798 20.7378 6.68051 20.5162 6.11133C20.2946 5.51348 19.9886 5.01123 19.4864 4.5118C18.9875 4.01293 18.4847 3.70303 17.8941 3.47469C17.321 3.25309 16.6675 3.09842 15.7114 3.05624C14.7485 3.01069 14.4425 3 11.9994 3L11.9988 3.00056Z" fill="currentColor"></path>
    <path d="M11.9976 7.37671C9.44585 7.37671 7.375 9.447 7.375 11.9993C7.375 14.5516 9.44529 16.6219 11.9976 16.6219C14.5499 16.6219 16.6201 14.5516 16.6201 11.9993C16.6201 9.44756 14.5499 7.37671 11.9976 7.37671ZM11.9976 14.9976C10.3418 14.9976 8.99928 13.6551 8.99928 11.9993C8.99928 10.3435 10.3418 9.00099 11.9976 9.00099C13.6533 9.00099 14.9959 10.3435 14.9959 11.9993C14.9959 13.6551 13.6533 14.9976 11.9976 14.9976Z" fill="currentColor"></path>
    <path d="M17.8812 7.19404C17.8812 7.79021 17.3981 8.27333 16.8019 8.27333C16.2058 8.27333 15.7227 7.79021 15.7227 7.19404C15.7227 6.59787 16.2058 6.11475 16.8019 6.11475C17.3981 6.11475 17.8812 6.59787 17.8812 7.19404Z" fill="currentColor"></path>
  </symbol>
   <symbol id="facebook" fill="none" xmlns="http://www.w3.org/2000/svg" viewBox="0 0 24 24">
    <path d="M22 12.3038C22 6.74719 17.5229 2.24268 12 2.24268C6.47715 2.24268 2 6.74719 2 12.3038C2 17.3255 5.65684 21.4879 10.4375 22.2427V15.2121H7.89844V12.3038H10.4375V10.0872C10.4375 7.56564 11.9305 6.1728 14.2146 6.1728C15.3088 6.1728 16.4531 6.36931 16.4531 6.36931V8.84529H15.1922C13.95 8.84529 13.5625 9.6209 13.5625 10.4166V12.3038H16.3359L15.8926 15.2121H13.5625V22.2427C18.3432 21.4879 22 17.3257 22 12.3038Z" fill="currentColor"></path>
  </symbol>

<symbol id="dev-team" xmlns="http://www.w3.org/2000/svg" height="32px" viewBox="0 -960 960 960" width="32px" fill="#02060a">
  <path d="M40-272q0-34 17.5-62.5T104-378q62-31 126-46.5T360-440q66 0 130 15.5T616-378q29 15 46.5 43.5T680-272v32q0 33-23.5 56.5T600-160H120q-33 0-56.5-23.5T40-240v-32Zm800 112H738q11-18 16.5-38.5T760-240v-40q0-44-24.5-84.5T666-434q51 6 96 20.5t84 35.5q36 20 55 44.5t19 53.5v40q0 33-23.5 56.5T840-160ZM247-527q-47-47-47-113t47-113q47-47 113-47t113 47q47 47 47 113t-47 113q-47 47-113 47t-113-47Zm466 0q-47 47-113 47-11 0-28-2.5t-28-5.5q27-32 41.5-71t14.5-81q0-42-14.5-81T544-792q14-5 28-6.5t28-1.5q66 0 113 47t47 113q0 66-47 113ZM120-240h480v-32q0-11-5.5-20T580-306q-54-27-109-40.5T360-360q-56 0-111 13.5T140-306q-9 5-14.5 14t-5.5 20v32Zm296.5-343.5Q440-607 440-640t-23.5-56.5Q393-720 360-720t-56.5 23.5Q280-673 280-640t23.5 56.5Q327-560 360-560t56.5-23.5ZM360-240Zm0-400Z"/>
</symbol>

  <!-- Scroll -->
<symbol id="stt-paw" xmlns="http://www.w3.org/2000/svg" viewBox="0 0 63.445 63.445">
  <path fill="#332C22" d="M21.572,28.926c5.067,0,9.19-5.533,9.19-12.334s-4.123-12.334-9.19-12.334c-5.067,0-9.19,5.533-9.19,12.334 S16.504,28.926,21.572,28.926z M21.572,7.258c3.355,0,6.19,4.275,6.19,9.334s-2.834,9.334-6.19,9.334 c-3.356,0-6.19-4.275-6.19-9.334S18.216,7.258,21.572,7.258z"></path>
  <path fill="#332C22" d="M48.83,40.922c-0.189-0.256-0.37-0.498-0.466-0.707c-2.054-4.398-7.689-9.584-16.813-9.713L31.2,30.5 c-8.985,0-14.576,4.912-16.813,9.51c-0.077,0.156-0.247,0.361-0.427,0.576c-0.212,0.254-0.423,0.512-0.604,0.793 c-1.89,2.941-2.853,6.25-2.711,9.318c0.15,3.26,1.512,5.877,3.835,7.369c0.937,0.604,1.95,0.907,3.011,0.907 c2.191,0,4.196-1.233,6.519-2.664c1.476-0.907,3.002-1.848,4.698-2.551c0.191-0.063,0.968-0.158,2.241-0.158 c1.515,0,2.6,0.134,2.833,0.216c1.653,0.729,3.106,1.688,4.513,2.612c2.154,1.418,4.188,2.759,6.395,2.759 c0.947,0,1.867-0.248,2.732-0.742c4.778-2.715,5.688-10.162,2.03-16.603C49.268,41.52,49.048,41.219,48.83,40.922z M45.939,55.838 c-0.422,0.238-0.818,0.35-1.25,0.35c-1.308,0-2.9-1.049-4.746-2.264c-1.438-0.947-3.066-2.02-4.949-2.852 c-0.926-0.41-2.934-0.472-4.046-0.472c-1.629,0-2.76,0.128-3.362,0.375c-1.943,0.808-3.646,1.854-5.149,2.779 c-1.934,1.188-3.604,2.219-4.946,2.219c-0.49,0-0.931-0.137-1.389-0.432c-1.483-0.953-2.356-2.724-2.461-4.984 c-0.113-2.45,0.682-5.135,2.238-7.557c0.113-0.177,0.25-0.334,0.383-0.492c0.274-0.328,0.586-0.701,0.823-1.188 c1.84-3.781,6.514-7.82,14.115-7.82l0.308,0.002c7.736,0.109,12.451,4.369,14.137,7.982c0.225,0.479,0.517,0.875,0.773,1.223 c0.146,0.199,0.301,0.4,0.426,0.619C49.684,48.326,49.279,53.939,45.939,55.838z"></path>
  <path fill="#332C22" d="M41.111,28.926c5.068,0,9.191-5.533,9.191-12.334S46.18,4.258,41.111,4.258c-5.066,0-9.189,5.533-9.189,12.334 S36.044,28.926,41.111,28.926z M41.111,7.258c3.355,0,6.191,4.275,6.191,9.334s-2.834,9.334-6.191,9.334 c-3.355,0-6.189-4.275-6.189-9.334S37.756,7.258,41.111,7.258z"></path>
  <path fill="#332C22" d="M56.205,22.592c-4.061,0-7.241,4.213-7.241,9.59c0,5.375,3.181,9.588,7.241,9.588s7.24-4.213,7.24-9.588 C63.445,26.805,60.266,22.592,56.205,22.592z M56.205,38.77c-2.299,0-4.241-3.018-4.241-6.588c0-3.572,1.942-6.59,4.241-6.59 s4.24,3.018,4.24,6.59C60.445,35.752,58.503,38.77,56.205,38.77z"></path>
  <path fill="#332C22" d="M14.482,32.182c0-5.377-3.181-9.59-7.241-9.59S0,26.805,0,32.182c0,5.375,3.181,9.588,7.241,9.588 S14.482,37.557,14.482,32.182z M7.241,38.77C4.942,38.77,3,35.752,3,32.182c0-3.572,1.942-6.59,4.241-6.59 c2.299,0,4.241,3.018,4.241,6.59C11.482,35.752,9.54,38.77,7.241,38.77z"></path>
</symbol>

  <symbol version="1.1" id="pawprints" xmlns="http://www.w3.org/2000/svg" xmlns:xlink="http://www.w3.org/1999/xlink" xml:space="preserve" viewBox="0 0 135.996 135.996">
    <g>
      <path d="M135.975,44.161c-2.011-22.522-18.549-34.153-33.058-35.423
		c-17.848-1.564-27.246,3.919-34.919,11.266c-7.673-7.351-17.103-12.837-34.919-11.27c-14.516,1.27-31.05,12.902-33.058,35.427
		L0,51.083l0.018,0.465c2.044,23.56,23.341,47.821,65.114,74.175l2.863,1.807l2.863-1.807
		c41.772-26.355,63.074-50.619,65.114-74.175l0.025-6.911L135.975,44.161z M74.784,38.471c0,0,2.87,4.559,2.87,10.196l-2.87-0.766
		V38.471z M74.698,50.868c6.22-0.097,7,9.749,6.367,13.206c-0.576,3.178-3.131,7.158-6.367,7.158c-3.232,0-5.859-2.63-5.859-5.866
		C68.839,62.131,68.485,50.965,74.698,50.868z M61.213,38.471v9.534l-2.87,0.662C58.342,43.031,61.213,38.471,61.213,38.471z
		 M60.121,50.868c6.739-0.623,5.859,11.266,5.859,14.501c0,3.235-2.623,5.866-5.859,5.866s-4.549-2.913-5.862-5.866
		C52.648,61.766,53.382,51.491,60.121,50.868z M44.095,52.142v9.241l-2.87,0.952C41.228,56.702,44.095,52.142,44.095,52.142z
		 M43.794,79.896c-1.303-2.956-4.778-13.414-0.494-15.632c4.277-2.222,9.913,7.941,11.213,10.898
		c1.31,2.956-0.029,6.424-2.985,7.727C48.565,84.198,45.108,82.852,43.794,79.896z M86.794,92.698
		c-4.86,8.571-8.704,1.016-19.44,1.016s-14.319,7.641-19.447-1.016c-2.681-4.527,6.188-8.067,9.037-10.729
		c3.565-3.328,4.441-9.373,10.407-9.373c5.687,0,6.904,5.944,10.457,9.047C80.971,84.395,89.675,87.634,86.794,92.698z
		 M91.354,79.903c-1.106,3.042-4.47,4.617-7.508,3.507c-3.042-1.106-5.919-5.443-4.817-8.482c0.487-1.328,3.604-1.528,5.4-3.837
		c2.301-2.949,3.565-7.845,6.378-6.811C95.827,66.114,92.456,76.872,91.354,79.903z M91.901,61.383v-9.241
		c0,0,2.87,4.559,2.87,10.193L91.901,61.383z"></path>
    </g>
  </symbol>

</svg>